<?xml version="1.0" standalone="no"?>
<!DOCTYPE svg PUBLIC "-//W3C//DTD SVG 20010904//EN"
 "http://www.w3.org/TR/2001/REC-SVG-20010904/DTD/svg10.dtd">
<svg version="1.0" xmlns="http://www.w3.org/2000/svg"
 width="512.000000pt" height="512.000000pt" viewBox="0 0 512.000000 512.000000"
 preserveAspectRatio="xMidYMid meet">
<metadata>
Created by potrace 1.14, written by Peter Selinger 2001-2017
</metadata>
<g transform="translate(0.000000,512.000000) scale(0.100000,-0.100000)"
fill="#000000" stroke="none">
<path d="M397 5104 c-99 -24 -167 -62 -243 -138 -77 -78 -114 -144 -139 -248
-22 -95 -22 -4221 0 -4316 25 -104 62 -170 139 -248 78 -77 144 -114 248 -139
95 -22 4221 -22 4316 0 104 25 170 62 248 139 77 78 114 144 139 248 22 95 22
4221 0 4316 -25 104 -62 170 -139 248 -78 77 -144 114 -248 139 -92 22 -4231
21 -4321 -1z m2814 -770 c119 -36 219 -105 267 -186 9 -15 19 -28 22 -28 3 0
32 36 64 80 l60 79 29 -17 c16 -9 33 -22 38 -28 6 -7 -59 -146 -190 -405 -261
-515 -596 -1216 -586 -1227 4 -5 190 108 300 181 310 208 536 423 721 689 32
46 59 85 60 87 2 2 23 -11 48 -29 51 -37 54 -24 -33 -150 -215 -310 -519 -571
-1032 -888 -156 -96 -157 -96 -180 -152 -233 -573 -520 -1086 -778 -1389 -236
-279 -469 -414 -683 -398 -96 8 -162 35 -216 90 -69 70 -87 123 -85 252 3 243
113 463 357 714 227 233 618 503 1101 761 l80 42 70 165 c39 90 72 169 74 175
2 6 -16 -2 -40 -17 -154 -95 -317 -148 -454 -148 -214 0 -368 88 -449 256
-102 208 -58 524 111 795 218 350 657 651 1038 713 70 11 221 2 286 -17z"/>
<path d="M3026 4190 c-271 -43 -534 -197 -726 -427 -120 -144 -168 -214 -236
-348 -81 -161 -108 -259 -109 -395 0 -95 3 -110 28 -162 111 -226 420 -192
766 84 87 70 101 85 141 160 166 315 317 574 442 759 44 66 78 127 78 141 0
26 -45 102 -76 130 -60 53 -187 76 -308 58z"/>
<path d="M2370 2132 c-426 -237 -790 -544 -1015 -857 -66 -92 -149 -256 -165
-330 -22 -96 9 -202 73 -249 44 -32 164 -29 237 6 222 109 488 478 795 1103
120 246 186 385 182 385 -1 0 -50 -26 -107 -58z"/>
</g>
</svg>
